<?xml version="1.0" encoding="utf-8"?>
<!-- Generator: Adobe Illustrator 25.1.0, SVG Export Plug-In . SVG Version: 6.00 Build 0)  -->
<svg version="1.1" id="Layer_1" xmlns="http://www.w3.org/2000/svg" xmlns:xlink="http://www.w3.org/1999/xlink" x="0px" y="0px"
	 viewBox="0 0 55.1 48.2" style="enable-background:new 0 0 55.1 48.2;" xml:space="preserve">
<style type="text/css">
	.st0{fill:#FA7F5D;}
</style>
<g>
	<path class="st0" d="M13.9,36.1c0,0.4,0.2,0.9,0.8,0.9h7.6c0.4,0,0.9-0.3,0.9-0.9v-0.8c-0.1-1.6-1-3.1-2.3-4l-0.1-0.1l0.1-0.1
		c0.4-0.7,0.7-1.3,0.7-1.9c0-1.7-1.4-3.1-3.1-3.1c-1.6,0-3.1,1.4-3.1,3.1c0,0.7,0.2,1.4,0.7,1.9l0.1,0.1L16,31.3
		c-1.4,0.9-2.1,2.3-2.1,4V36.1L13.9,36.1z M18.4,27.9c0.8,0,1.3,0.7,1.3,1.3s-0.5,1.3-1.3,1.3s-1.3-0.7-1.3-1.3
		C17.1,28.5,17.7,27.9,18.4,27.9z M15.4,35.2c0.1-1.8,1.7-2.8,3-2.8s2.8,1,2.9,2.7v0.1L15.4,35.2L15.4,35.2z"/>
	<path class="st0" d="M32.4,36.1c0,0.4,0.1,0.9,0.7,0.9h7.6c0.4,0,0.9-0.3,0.9-0.9v-0.8c-0.2-1.7-1-3.2-2.3-4l-0.1-0.1l0.1-0.2
		c0.4-0.7,0.7-1.2,0.7-1.8c0-1.7-1.4-3.1-3.1-3.1c-1.7,0-3.1,1.4-3.1,3.1c0,0.7,0.2,1.4,0.7,1.9l0.1,0.1l-0.1,0.1
		c-1.4,0.9-2.1,2.3-2.1,4L32.4,36.1L32.4,36.1z M36.9,27.9c0.8,0,1.3,0.7,1.3,1.3c0,0.7-0.7,1.3-1.3,1.3c-0.8,0-1.3-0.6-1.3-1.3
		C35.6,28.4,36.3,27.9,36.9,27.9z M34,35.2c0.1-1.8,1.5-2.7,2.8-2.8c1.3,0,2.8,0.9,3,2.6l0,0.1L34,35.2L34,35.2z"/>
	<path class="st0" d="M23.1,21.2c0,0.3,0,0.5,0.1,0.6s0.2,0.2,0.4,0.2h7.6c0.4,0,0.9-0.3,0.9-0.9v-0.8c0-1.6-0.8-3.1-2.1-4l-0.1-0.1
		l0.2-0.2c0.3-0.5,0.6-1.1,0.6-1.8c0-1.7-1.4-3.1-3.1-3.1s-3.1,1.4-3.1,3.1c0,0.7,0.2,1.4,0.7,1.9l0.1,0.1l-0.1,0.1
		c-1.4,0.9-2.1,2.3-2.1,4L23.1,21.2L23.1,21.2z M27.6,12.7c0.7,0,1.3,0.7,1.3,1.3c0,0.7-0.7,1.3-1.3,1.3s-1.3-0.7-1.3-1.3
		C26.3,13.2,27,12.7,27.6,12.7z M24.7,20.2c0.1-1.8,1.6-2.7,2.9-2.7c1.4,0,2.8,1,2.9,2.7v0.1h-5.8V20.2z"/>
	<path class="st0" d="M24.8,30.1c-0.1,0-0.2-0.1-0.3-0.1c-0.1,0-0.2,0-0.4,0.1c-0.2,0.1-0.4,0.3-0.5,0.5s-0.1,0.5,0,0.7
		s0.3,0.3,0.5,0.4c1,0.3,2,0.5,3.5,0.5c1.2,0,2.4-0.2,3.6-0.6c0.5-0.2,0.6-0.2,0.7-0.4c0.1-0.2,0.1-0.4,0-0.6
		c-0.2-0.4-0.6-0.7-1.1-0.5C28.9,30.7,26.7,30.7,24.8,30.1z"/>
	<path class="st0" d="M17.3,23.7c-0.1,0.3,0,0.5,0.2,0.7s0.4,0.3,0.6,0.3c0.5,0,0.8-0.3,0.9-0.7c0.2-1.1,0.5-2,1-2.8
		c0.6-1,1.2-1.7,1.8-2.3c0.2-0.2,0.3-0.4,0.3-0.6s-0.1-0.4-0.3-0.6c-0.2-0.2-0.4-0.3-0.6-0.3s-0.4,0.1-0.6,0.3
		c-0.9,0.9-1.6,1.9-2.1,2.8C17.9,21.5,17.5,22.6,17.3,23.7z"/>
	<path class="st0" d="M33.4,18.6c0.6,0.8,1.2,1.6,1.7,2.4l0,0c0.4,0.8,0.8,1.7,1,2.8c0,0.3,0.2,0.5,0.3,0.5c0.2,0.1,0.4,0.2,0.5,0.2
		h0.2c0.4-0.1,0.8-0.5,0.7-1.1c-0.2-1.1-0.6-2.2-1.2-3.4c-0.6-1-1.2-1.9-2.1-2.8c-0.2-0.2-0.4-0.3-0.6-0.3s-0.4,0.1-0.6,0.3
		c-0.2,0.2-0.3,0.4-0.3,0.6S33.2,18.4,33.4,18.6z"/>
</g>
</svg>
